<svg width="50" height="44" viewBox="0 0 50 44" fill="none" xmlns="http://www.w3.org/2000/svg">
<path d="M10.4167 40.7083C8.4828 40.7083 6.62813 39.9401 5.26068 38.5727C3.89323 37.2052 3.125 35.3505 3.125 33.4167C3.125 31.4828 3.89323 29.6281 5.26068 28.2607C6.62813 26.8932 8.4828 26.125 10.4167 26.125C12.3505 26.125 14.2052 26.8932 15.5727 28.2607C16.9401 29.6281 17.7083 31.4828 17.7083 33.4167C17.7083 35.3505 16.9401 37.2052 15.5727 38.5727C14.2052 39.9401 12.3505 40.7083 10.4167 40.7083ZM10.4167 23C7.65399 23 5.00447 24.0975 3.05097 26.051C1.09747 28.0045 0 30.654 0 33.4167C0 36.1793 1.09747 38.8289 3.05097 40.7824C5.00447 42.7359 7.65399 43.8333 10.4167 43.8333C13.1793 43.8333 15.8289 42.7359 17.7824 40.7824C19.7359 38.8289 20.8333 36.1793 20.8333 33.4167C20.8333 30.654 19.7359 28.0045 17.7824 26.051C15.8289 24.0975 13.1793 23 10.4167 23ZM30.8333 18.8333H39.5833V15.0833H32.9167L28.875 8.27083C28.2708 7.22917 27.0833 6.54167 25.8333 6.54167C24.8542 6.54167 23.9583 6.9375 23.3333 7.58333L15.625 15.2708C14.9792 15.9167 14.5833 16.75 14.5833 17.7917C14.5833 19.1042 15.2708 20.2083 16.3542 20.8542L23.3333 25.0833V35.5H27.0833V21.9583L22.3958 18.5208L27.2292 13.625L30.8333 18.8333ZM39.5833 40.7083C37.6495 40.7083 35.7948 39.9401 34.4273 38.5727C33.0599 37.2052 32.2917 35.3505 32.2917 33.4167C32.2917 31.4828 33.0599 29.6281 34.4273 28.2607C35.7948 26.8932 37.6495 26.125 39.5833 26.125C41.5172 26.125 43.3719 26.8932 44.7393 28.2607C46.1068 29.6281 46.875 31.4828 46.875 33.4167C46.875 35.3505 46.1068 37.2052 44.7393 38.5727C43.3719 39.9401 41.5172 40.7083 39.5833 40.7083ZM39.5833 23C36.8207 23 34.1711 24.0975 32.2176 26.051C30.2641 28.0045 29.1667 30.654 29.1667 33.4167C29.1667 36.1793 30.2641 38.8289 32.2176 40.7824C34.1711 42.7359 36.8207 43.8333 39.5833 43.8333C40.9513 43.8333 42.3058 43.5639 43.5696 43.0404C44.8334 42.5169 45.9818 41.7496 46.949 40.7824C47.9163 39.8151 48.6836 38.6668 49.2071 37.403C49.7306 36.1391 50 34.7846 50 33.4167C50 32.0487 49.7306 30.6942 49.2071 29.4304C48.6836 28.1666 47.9163 27.0182 46.949 26.051C45.9818 25.0837 44.8334 24.3164 43.5696 23.7929C42.3058 23.2694 40.9513 23 39.5833 23ZM33.3333 8C35.4167 8 37.0833 6.33333 37.0833 4.25C37.0833 2.16667 35.4167 0.5 33.3333 0.5C31.25 0.5 29.5833 2.16667 29.5833 4.25C29.5833 6.33333 31.25 8 33.3333 8Z" fill="white"/>
</svg>
