<svg width="61" height="45" viewBox="0 0 61 45" fill="none" xmlns="http://www.w3.org/2000/svg">
<path d="M54.875 42.8438C54.875 43.3825 54.661 43.8992 54.28 44.2801C53.8991 44.661 53.3825 44.875 52.8437 44.875H16.2812C15.7425 44.875 15.2259 44.661 14.8449 44.2801C14.464 43.8992 14.25 43.3825 14.25 42.8438C14.25 42.305 14.464 41.7884 14.8449 41.4075C15.2259 41.0265 15.7425 40.8125 16.2812 40.8125H52.8437C53.3825 40.8125 53.8991 41.0265 54.28 41.4075C54.661 41.7884 54.875 42.305 54.875 42.8438ZM60.9687 22.5313V28.625C60.9687 29.1637 60.7547 29.6804 60.3738 30.0613C59.9929 30.4423 59.4762 30.6563 58.9375 30.6563H14.1992C12.0138 30.6638 9.88476 29.9627 8.13147 28.658C6.37817 27.3534 5.09508 25.5155 4.4746 23.4199L0.894518 11.5117C0.716724 10.9023 0.6815 10.2602 0.791569 9.63501C0.901639 9.00982 1.15405 8.41832 1.52928 7.90628C1.91299 7.40121 2.4083 6.99173 2.9765 6.70983C3.54469 6.42794 4.17039 6.28126 4.80467 6.28128H9.17186C9.4684 6.28189 9.76112 6.34825 10.0289 6.47557C10.2968 6.60289 10.533 6.78802 10.7207 7.01761L15.1894 12.375H19.5566L17.2715 5.54495C17.0658 4.93324 17.0087 4.28133 17.1051 3.64321C17.2015 3.00508 17.4486 2.3991 17.8258 1.87546C18.203 1.35181 18.6996 0.925575 19.2743 0.632043C19.8491 0.338511 20.4855 0.186133 21.1308 0.187528H25.4219C25.7039 0.186043 25.9832 0.244073 26.2413 0.357826C26.4994 0.471579 26.7307 0.638497 26.9199 0.847684L37.4824 12.375H50.8125C53.5061 12.375 56.0894 13.4451 57.994 15.3497C59.8987 17.2544 60.9687 19.8377 60.9687 22.5313ZM56.9062 22.5313C56.8996 20.9172 56.2554 19.3711 55.114 18.2297C53.9727 17.0884 52.4266 16.4442 50.8125 16.4375H36.5937C36.3117 16.439 36.0324 16.381 35.7743 16.2672C35.5162 16.1535 35.2849 15.9866 35.0957 15.7774L24.5332 4.25003H21.1308L24.3047 13.7715C24.4041 14.0769 24.4306 14.4013 24.3821 14.7187C24.3336 15.0362 24.2114 15.3379 24.0254 15.5996C23.8378 15.8616 23.5899 16.0745 23.3026 16.2203C23.0153 16.3662 22.6971 16.4407 22.375 16.4375H14.25C13.9534 16.4369 13.6607 16.3706 13.3929 16.2432C13.1251 16.1159 12.8888 15.9308 12.7012 15.7012L8.23241 10.3438H4.77928L8.35936 22.252C8.73262 23.5097 9.50344 24.6126 10.5563 25.3953C11.6091 26.1781 12.8873 26.5986 14.1992 26.5938H56.9062V22.5313Z" fill="white"/>
</svg>
